<svg viewBox="0 0 32 32" fill="none" xmlns="http://www.w3.org/2000/svg">
  <path d="M9.89091 6.14545L8.43636 1.78182L10.4727 1.12727L11.9273 5.45455L9.89091 6.14545ZM14.9091 4.36364V0H17.0909V4.36364H14.9091ZM22.1091 6.14545L20.0727 5.45455L21.5273 1.12727L23.5636 1.81818L22.1091 6.14545ZM1.67273 32L1.23636 29.1273L8.90909 27.9636C9.17576 27.9151 9.41212 27.8 9.61818 27.6182C9.82424 27.4364 9.97576 27.2121 10.0727 26.9455L11.3091 23.0909C11.4303 22.7515 11.4303 22.4242 11.3091 22.1091C11.1879 21.7939 10.9697 21.5515 10.6545 21.3818L9.45455 25.1636L6.69091 24.2909L9.89091 14.1818C9.93939 14.0364 9.96364 13.8788 9.96364 13.7091C9.96364 13.5394 9.93939 13.3818 9.89091 13.2364L5.01818 22.4C4.6303 23.103 4.09091 23.6667 3.4 24.0909C2.70909 24.5152 1.96364 24.7273 1.16364 24.7273H0V21.8182H1.16364C1.4303 21.8182 1.67879 21.7515 1.90909 21.6182C2.13939 21.4848 2.31515 21.297 2.43636 21.0545L8.87273 8.90909L10.6909 9.92727C11.5879 10.4364 12.2242 11.1697 12.6 12.1273C12.9758 13.0848 13.0061 14.0606 12.6909 15.0545L11.5636 18.6182C12.6303 19.0303 13.4 19.7576 13.8727 20.8C14.3455 21.8424 14.4121 22.9091 14.0727 24L12.8364 27.8545C12.5697 28.6303 12.1273 29.2909 11.5091 29.8364C10.8909 30.3818 10.1697 30.7152 9.34545 30.8364L1.67273 32ZM30.3273 32L22.6545 30.8364C21.8303 30.7152 21.1091 30.3818 20.4909 29.8364C19.8727 29.2909 19.4303 28.6303 19.1636 27.8545L17.9273 24C17.5879 22.9091 17.6545 21.8424 18.1273 20.8C18.6 19.7576 19.3697 19.0303 20.4364 18.6182L19.3091 15.0545C18.9939 14.0606 19.0242 13.0848 19.4 12.1273C19.7758 11.1697 20.4121 10.4364 21.3091 9.92727L23.1273 8.90909L29.5636 21.0545C29.6848 21.297 29.8606 21.4848 30.0909 21.6182C30.3212 21.7515 30.5697 21.8182 30.8364 21.8182H32V24.7273H30.8364C30.0364 24.7273 29.2909 24.5152 28.6 24.0909C27.9091 23.6667 27.3697 23.103 26.9818 22.4L22.1091 13.2364C22.0606 13.3818 22.0364 13.5394 22.0364 13.7091C22.0364 13.8788 22.0606 14.0364 22.1091 14.1818L25.3091 24.2909L22.5455 25.1636L21.3455 21.3818C21.0303 21.5515 20.8121 21.7939 20.6909 22.1091C20.5697 22.4242 20.5697 22.7515 20.6909 23.0909L21.9273 26.9455C22.0242 27.2121 22.1758 27.4364 22.3818 27.6182C22.5879 27.8 22.8242 27.9151 23.0909 27.9636L30.7636 29.1273L30.3273 32Z" fill="white"/>
</svg>