<?xml version="1.0" encoding="utf-8"?>
<!-- Generator: Adobe Illustrator 21.0.0, SVG Export Plug-In . SVG Version: 6.00 Build 0)  -->
<svg version="1.1" id="Layer_1" xmlns="http://www.w3.org/2000/svg" xmlns:xlink="http://www.w3.org/1999/xlink" x="0px" y="0px"
	 viewBox="0 0 492.7 617.1" style="enable-background:new 0 0 492.7 617.1;" xml:space="preserve">
<style type="text/css">
	.st0{fill:#EE3324;}
	.st1{fill:#009DD7;}
</style>
<g>
	<path class="st0" d="M49.5,104.4v36.4c0,3.7-0.6,6.9-1.8,9.7c-1.2,2.8-2.8,5.1-4.8,7c-2,1.9-4.4,3.3-7.1,4.3
		c-2.7,1-5.6,1.4-8.7,1.4c-3.1,0-6-0.5-8.7-1.4c-2.7-0.9-5.1-2.4-7.1-4.3c-2-1.9-3.7-4.2-4.8-7c-1.2-2.8-1.8-6-1.8-9.7V22.6
		C4.7,7.5,12.2,0,27.1,0h90.2c7.2,0,12.8,2.2,16.8,6.7c4,4.5,6,9.8,6,15.9s-2,11.5-6,16c-4,4.5-9.6,6.8-16.8,6.8H49.5V59h67.8
		c7.2,0,12.8,2.2,16.8,6.7c4,4.5,6,9.8,6,15.9c0,6.3-2,11.7-6,16.1c-4,4.5-9.6,6.7-16.8,6.7H49.5z"/>
	<path class="st0" d="M214.9,163.5c-41.5,0-62.3-24-62.3-72V22.6c0-3.7,0.6-6.9,1.9-9.7c1.2-2.8,2.9-5.1,4.9-7
		c2-1.9,4.4-3.3,7.1-4.3c2.7-0.9,5.6-1.4,8.7-1.4c6.1,0,11.4,1.9,15.9,5.7c4.5,3.8,6.7,9.4,6.7,16.7v75.7c0,13.6,6.1,20.4,18.2,20.4
		c12.3,0,18.4-6.8,18.4-20.4V22.6c0-7.2,2.2-12.7,6.7-16.6c4.5-3.9,9.7-5.8,15.7-5.8c6.1,0,11.5,1.9,16,5.7
		c4.5,3.8,6.8,9.4,6.8,16.7v68.9c0,48-20.9,72-62.8,72H214.9z"/>
	<path class="st0" d="M379.8,153.6l-39.3-59.2v46.5c0,7.3-2.2,12.9-6.7,16.7c-4.5,3.8-9.8,5.7-15.9,5.7c-3.1,0-6-0.5-8.7-1.4
		c-2.7-0.9-5.1-2.4-7.1-4.3c-2-1.9-3.7-4.2-4.8-7c-1.2-2.8-1.8-6-1.8-9.7V22.6c0-7.2,2.2-12.7,6.7-16.6c4.5-3.9,9.7-5.8,15.7-5.8
		c4.4,0,8.1,0.8,11.1,2.3c3,1.5,5.4,4.1,7.4,7.8l40.8,62.1V22.6c0-3.7,0.6-6.9,1.9-9.7c1.2-2.8,2.9-5.1,4.9-7c2-1.9,4.4-3.3,7.1-4.3
		c2.7-0.9,5.6-1.4,8.7-1.4c6.1,0,11.4,1.9,15.9,5.7c4.5,3.8,6.7,9.4,6.7,16.7v118.3c0,7.3-2.2,12.9-6.7,16.7
		c-4.5,3.8-9.8,5.7-15.9,5.7c-3.1,0-5.7-0.4-7.9-1.2c-2.2-0.8-4.1-1.7-5.6-2.7c-1.5-1-2.8-2.1-3.7-3.2c-1-1.1-1.7-2-2.3-2.7
		L379.8,153.6z"/>
</g>
<g>
	<path class="st1" d="M43.7,281.6v34.5c0,15-7.3,22.5-22,22.5c-7.5,0-12.9-1.8-16.3-5.5c-3.4-3.7-5.1-9.3-5.1-17v-51.7
		c0-8.9,2-15.6,5.9-20c4-4.4,10.2-6.7,18.6-6.7h54.9c5.9,0,8.9-2.2,8.9-6.6c0-4.4-3-6.6-8.9-6.6H21.2c-6.8,0-12-1.8-15.7-5.5
		c-3.7-3.7-5.5-9.2-5.5-16.5c0-7.2,1.7-12.6,5-16.3c3.3-3.7,8.7-5.5,16-5.5h56.4c32.8,0,49.2,16.8,49.2,50.4
		c0,33.6-16.3,50.4-49,50.4H43.7z"/>
	<path class="st1" d="M154,286.3c-11.4-8.9-17.2-16.4-17.2-22.5c0-17.4,8.2-26.1,24.6-26.1h54.9c5.8,0,8.7-2.2,8.7-6.6
		c0-4.4-2.9-6.6-8.7-6.6h-58.7c-6.8,0-12-1.8-15.7-5.5c-3.7-3.7-5.5-9.2-5.5-16.5c0-7.2,1.7-12.6,5-16.3c3.3-3.7,8.7-5.5,16-5.5
		h56.6c32.6,0,48.9,16.8,48.9,50.4c0,32.8-15.5,49.6-46.4,50.4H212l18.6,18c3,2.8,5.1,5.9,6.5,9.1c1.3,3.3,2,6,2,8.3
		c0,2.5-0.6,5.2-1.8,7.8c-1.2,2.7-2.8,5.1-4.9,7.3c-2,2.2-4.3,4-6.9,5.4c-2.5,1.4-5.1,2.1-7.6,2.1c-5.8,0-11.9-2.6-18.4-7.8
		L154,286.3z"/>
	<path class="st1" d="M434.6,259.2c0,11.2-2.1,21.7-6.4,31.5c-4.2,9.8-10,18.4-17.4,25.6c-7.3,7.3-15.9,13-25.7,17.2
		c-9.8,4.2-20.3,6.3-31.5,6.3c-11.2,0-21.6-2.1-31.4-6.3c-9.7-4.2-18.3-9.9-25.5-17.2c-7.3-7.3-13-15.8-17.3-25.6
		c-4.2-9.8-6.4-20.3-6.4-31.5c0-11.2,2.1-21.6,6.4-31.5c4.2-9.8,10-18.4,17.3-25.6c7.3-7.3,15.8-13,25.5-17.3
		c9.7-4.2,20.2-6.4,31.4-6.4c11.2,0,21.6,2.1,31.5,6.4c9.8,4.2,18.4,10,25.7,17.3c7.3,7.3,13.1,15.8,17.4,25.6
		C432.5,237.5,434.6,248,434.6,259.2z M390.7,259.6c0-5.1-1-9.9-2.9-14.3c-1.9-4.4-4.5-8.3-7.8-11.7c-3.3-3.3-7.2-5.9-11.7-7.8
		s-9.2-2.9-14.3-2.9s-9.9,1-14.3,2.9s-8.3,4.5-11.5,7.8c-3.3,3.3-5.8,7.2-7.7,11.7c-1.9,4.5-2.9,9.2-2.9,14.3c0,5.1,1,9.9,2.9,14.3
		c1.9,4.4,4.5,8.3,7.7,11.5c3.2,3.3,7.1,5.8,11.5,7.7c4.5,1.9,9.2,2.9,14.3,2.9s9.9-1,14.3-2.9c4.5-1.9,8.3-4.5,11.7-7.7
		c3.3-3.2,5.9-7.1,7.8-11.5C389.8,269.5,390.7,264.7,390.7,259.6z"/>
</g>
<g>
	<path class="st0" d="M102.4,617.1c-66,0-99-38.1-99-114.4V393.2c0-5.8,1-10.9,3-15.3c2-4.4,4.6-8.1,7.8-11.2c3.3-3,7-5.3,11.3-6.8
		c4.3-1.5,8.9-2.3,13.8-2.3c9.8,0,18.2,3,25.3,9.1c7.1,6,10.6,14.9,10.6,26.5v120.3c0,21.6,9.6,32.4,28.9,32.4
		c19.5,0,29.3-10.8,29.3-32.4V393.2c0-11.4,3.5-20.2,10.6-26.3c7.1-6.2,15.4-9.2,24.9-9.2c9.8,0,18.2,3,25.4,9.1
		c7.2,6,10.8,14.9,10.8,26.5v109.5c0,76.2-33.2,114.4-99.7,114.4H102.4z"/>
	<path class="st0" d="M307.1,523.3v57.9c0,5.8-0.9,10.9-2.8,15.3c-1.9,4.4-4.4,8.1-7.7,11.2c-3.3,3-7,5.3-11.3,6.8
		c-4.3,1.5-8.9,2.3-13.8,2.3c-9.8,0-18.2-3-25.3-9.1c-7.1-6-10.6-14.9-10.6-26.5V393.2c0-11.6,3.5-20.5,10.6-26.5
		c7.1-6,15.5-9.1,25.3-9.1c9.5,0,17.8,3.1,24.9,9.2c7.1,6.2,10.6,14.9,10.6,26.3v57.9l58.2-81.2c4.2-4.4,8.4-7.8,12.7-10.1
		c4.3-2.3,9.4-3.5,15.2-3.5c4.9,0,9.6,1,14.1,3c4.5,2,8.5,4.7,11.9,8c3.4,3.4,6.1,7.2,8.2,11.5c2.1,4.3,3.1,8.9,3.1,13.8
		c0,8.6-2.7,15.9-8,22L360.8,486l61.7,72.5c2.6,3.3,4.6,6.8,6.3,10.6c1.6,3.8,2.4,7.8,2.4,12c0,4.7-1.1,9.2-3.3,13.6
		c-2.2,4.4-5.1,8.3-8.5,11.5c-3.5,3.3-7.5,5.9-12,7.8c-4.5,2-9.1,3-13.8,3c-10.9,0-20.1-4.6-27.5-13.9L307.1,523.3z"/>
</g>
<g>
	<g>
		<path class="st1" d="M458.3,12.2c-2.1,0-3.7-0.4-4.8-1.1S452,9.2,452,7.7s0.5-2.6,1.6-3.4c1-0.7,2.6-1.1,4.8-1.1h27.4
			c2.1,0,3.7,0.4,4.8,1.1c1,0.7,1.6,1.9,1.6,3.4s-0.5,2.6-1.6,3.4c-1,0.7-2.6,1.1-4.8,1.1H458.3z"/>
		<path class="st1" d="M458.3,28.2c-2.1,0-3.7-0.4-4.8-1.1c-1-0.7-1.6-1.9-1.6-3.4c0-1.5,0.5-2.6,1.6-3.4s2.6-1.1,4.8-1.1H486
			c2,0,3.5,0.3,4.5,1c1,0.7,1.5,1.7,1.5,3.1c0,0.9-0.2,1.7-0.7,2.4c-0.4,0.7-1.2,1.5-2.2,2.3l-21.7,16.4h18.3c2.1,0,3.7,0.4,4.8,1.1
			c1,0.7,1.6,1.9,1.6,3.4s-0.5,2.6-1.6,3.4c-1,0.7-2.6,1.1-4.8,1.1h-28.4c-1.9,0-3.3-0.3-4.2-1c-0.9-0.7-1.4-1.7-1.4-3.1
			c0-0.9,0.3-1.8,0.8-2.6c0.5-0.8,1.3-1.6,2.5-2.5l21.3-16.1H458.3z"/>
		<path class="st1" d="M483.2,65.5v-3.3c0-2.1,0.3-3.7,1-4.8c0.7-1,1.7-1.6,3.1-1.6c1.4,0,2.5,0.5,3.2,1.6c0.7,1,1,2.6,1,4.8v15.5
			c0,2.1-0.3,3.7-1,4.8c-0.7,1.1-1.7,1.6-3.2,1.6c-1.4,0-2.4-0.5-3.1-1.6c-0.7-1-1-2.6-1-4.8v-3.3h-25c-2.1,0-3.7-0.4-4.8-1.1
			s-1.6-1.9-1.6-3.4s0.5-2.6,1.6-3.4c1-0.7,2.6-1.1,4.8-1.1H483.2z"/>
		<path class="st1" d="M491.5,102.5c0,2.1-0.3,3.7-1,4.8c-0.7,1.1-1.7,1.6-3.2,1.6c-1.4,0-2.4-0.5-3.1-1.6c-0.7-1-1-2.6-1-4.8v-7.2
			h-7v6.3c0,2.1-0.3,3.7-1,4.8c-0.7,1-1.7,1.6-3.1,1.6s-2.4-0.5-3.1-1.6c-0.7-1-1-2.6-1-4.8v-6.3h-7.3v7.5c0,2.1-0.3,3.7-1,4.8
			s-1.7,1.6-3.1,1.6c-1.4,0-2.4-0.5-3.1-1.6s-1-2.6-1-4.8V92.4c0-2.3,0.4-3.9,1.2-4.8s2.3-1.3,4.4-1.3h27.2c2.4,0,4,0.5,4.9,1.4
			s1.3,2.5,1.3,4.8V102.5z"/>
		<path class="st1" d="M467.9,123h-9.6c-2.1,0-3.7-0.4-4.8-1.1c-1-0.7-1.6-1.9-1.6-3.4c0-1.5,0.5-2.6,1.6-3.4s2.6-1.1,4.8-1.1h27
			c2.4,0,4,0.5,4.9,1.4s1.3,2.5,1.3,4.8v6.9c0,4.6-1.1,8.3-3.3,10.9s-5.2,4-8.9,4c-2.8,0-5.1-0.8-7-2.5c-1.9-1.7-3.1-3.9-3.6-6.9
			l-7.8,7c-1,0.9-1.9,1.6-2.8,2c-0.9,0.4-1.6,0.7-2.3,0.7c-1.2,0-2.2-0.4-3-1.2c-0.8-0.8-1.2-1.8-1.2-3c0-0.8,0.2-1.5,0.7-2.3
			s1.3-1.6,2.5-2.5L467.9,123z M473.9,123v4.1c0,1.8,0.4,3.2,1.3,4.2c0.8,1,2,1.5,3.6,1.5c1.5,0,2.6-0.5,3.4-1.4
			c0.8-1,1.2-2.3,1.2-4.1V123H473.9z"/>
		<path class="st1" d="M459.8,153.3l-3.9-1.3c-1.3-0.4-2.3-1-3-1.7s-1-1.6-1-2.5c0-1.2,0.4-2.3,1.2-3c0.8-0.8,1.8-1.2,3.1-1.2
			c0.5,0,1,0,1.4,0.1c0.4,0.1,0.8,0.2,1.2,0.3l27.6,10.2c2,0.7,3.4,1.7,4.4,2.8c0.9,1.1,1.4,2.5,1.4,4.1c0,1.5-0.4,2.8-1.3,4
			c-0.9,1.1-2.2,2-3.9,2.6l-28.1,9.9c-0.6,0.2-1.1,0.3-1.6,0.4c-0.5,0.1-0.9,0.1-1.2,0.1c-1.2,0-2.2-0.4-3-1.2
			c-0.8-0.8-1.2-1.9-1.2-3.2c0-1.1,0.4-2.1,1.1-2.9c0.7-0.8,1.8-1.4,3.3-1.8l3.6-1.1V153.3z M468,155.9v9.3l14.5-4.5L468,155.9z"/>
		<path class="st1" d="M451.3,198.5c0-5.7,1.9-10.4,5.7-13.9c3.8-3.5,8.8-5.3,15-5.3c6.1,0,11,1.8,14.9,5.4
			c3.9,3.6,5.8,8.2,5.8,13.8c0,3.3-0.6,6-1.9,8.3c-1.3,2.3-2.7,3.4-4.4,3.4c-1.1,0-2-0.4-2.8-1.1c-0.8-0.8-1.2-1.6-1.2-2.7
			c0-0.6,0.3-1.7,0.8-3.5c0.5-1.7,0.8-3.2,0.8-4.4c0-2.9-1.1-5.2-3.3-7c-2.2-1.7-5.1-2.6-8.8-2.6c-3.6,0-6.5,0.9-8.6,2.7
			s-3.2,4.2-3.2,7.2c0,1.4,0.3,3,1,4.8c0.7,1.8,1,3,1,3.5c0,0.9-0.4,1.7-1.2,2.5c-0.8,0.7-1.7,1.1-2.7,1.1c-1.8,0-3.4-1.2-4.8-3.6
			C452,204.9,451.3,202,451.3,198.5z"/>
		<path class="st1" d="M483.2,219.4v-3.3c0-2.1,0.3-3.7,1-4.8c0.7-1,1.7-1.6,3.1-1.6c1.4,0,2.5,0.5,3.2,1.6c0.7,1,1,2.6,1,4.8v15.5
			c0,2.1-0.3,3.7-1,4.8c-0.7,1.1-1.7,1.6-3.2,1.6c-1.4,0-2.4-0.5-3.1-1.6c-0.7-1-1-2.6-1-4.8v-3.3h-25c-2.1,0-3.7-0.4-4.8-1.1
			s-1.6-1.9-1.6-3.4s0.5-2.6,1.6-3.4c1-0.7,2.6-1.1,4.8-1.1H483.2z"/>
		<path class="st1" d="M458.3,249.5c-2.1,0-3.7-0.4-4.8-1.1s-1.6-1.9-1.6-3.4s0.5-2.6,1.6-3.4c1-0.7,2.6-1.1,4.8-1.1h27.4
			c2.1,0,3.7,0.4,4.8,1.1c1,0.7,1.6,1.9,1.6,3.4s-0.5,2.6-1.6,3.4c-1,0.7-2.6,1.1-4.8,1.1H458.3z"/>
		<path class="st1" d="M455,264.8l29.9-11.9c0.4-0.2,0.8-0.3,1.2-0.4c0.4-0.1,0.9-0.1,1.3-0.1c1.3,0,2.3,0.4,3.2,1.3s1.3,2,1.3,3.3
			c0,1-0.3,1.8-0.9,2.4c-0.6,0.6-1.6,1.2-3,1.7l-22.2,8.2l21.9,7.6c1.6,0.5,2.6,1.1,3.2,1.8c0.6,0.7,0.9,1.5,0.9,2.6
			c0,1.3-0.4,2.4-1.1,3.2c-0.7,0.8-1.7,1.2-3,1.2c-0.5,0-1,0-1.5-0.1c-0.5-0.1-1-0.2-1.5-0.4l-29.3-11.5c-1.3-0.5-2.3-1.1-2.8-1.8
			c-0.6-0.7-0.9-1.6-0.9-2.7c0-1,0.3-1.9,0.8-2.5C453,265.9,453.8,265.3,455,264.8z"/>
		<path class="st1" d="M491.5,304.4c0,2.1-0.3,3.7-1,4.8c-0.7,1.1-1.7,1.6-3.2,1.6c-1.4,0-2.4-0.5-3.1-1.6c-0.7-1-1-2.6-1-4.8v-7.2
			h-7v6.3c0,2.1-0.3,3.7-1,4.8c-0.7,1-1.7,1.6-3.1,1.6s-2.4-0.5-3.1-1.6c-0.7-1-1-2.6-1-4.8v-6.3h-7.3v7.5c0,2.1-0.3,3.7-1,4.8
			s-1.7,1.6-3.1,1.6c-1.4,0-2.4-0.5-3.1-1.6s-1-2.6-1-4.8v-10.4c0-2.3,0.4-3.9,1.2-4.8s2.3-1.3,4.4-1.3h27.2c2.4,0,4,0.5,4.9,1.4
			s1.3,2.5,1.3,4.8V304.4z"/>
		<path class="st1" d="M467.7,359.2v-3.1c0-2.1,0.3-3.7,1-4.7s1.7-1.5,3.1-1.5c1.4,0,2.5,0.5,3.2,1.5c0.7,1,1,2.6,1,4.7v6.5
			c0,2.2-0.5,3.8-1.4,4.8c-0.9,1-2.5,1.4-4.6,1.4c-5.6,0-10.1-1.7-13.5-5s-5.2-7.8-5.2-13.2c0-5.5,1.9-10,5.8-13.5
			c3.8-3.5,8.8-5.2,14.9-5.2c6.3,0,11.3,1.8,15.1,5.4s5.6,8.4,5.6,14.4c0,4-0.8,7.4-2.5,10.2c-1.6,2.8-3.5,4.2-5.7,4.2
			c-1.1,0-2.1-0.4-2.9-1.1c-0.8-0.8-1.3-1.6-1.3-2.7c0-0.7,0.6-2.1,1.9-4.4c1.3-2.3,1.9-4.4,1.9-6.5c0-3-1.1-5.4-3.2-7.2
			c-2.1-1.8-5.1-2.6-8.8-2.6c-3.8,0-6.8,0.9-9,2.7c-2.2,1.8-3.4,4.1-3.4,7.1c0,2.4,0.7,4.3,2.1,5.7
			C463.4,358.4,465.3,359.2,467.7,359.2z"/>
		<path class="st1" d="M459.8,379.9l-3.9-1.3c-1.3-0.4-2.3-1-3-1.7s-1-1.6-1-2.5c0-1.2,0.4-2.3,1.2-3c0.8-0.8,1.8-1.2,3.1-1.2
			c0.5,0,1,0,1.4,0.1c0.4,0.1,0.8,0.2,1.2,0.3l27.6,10.2c2,0.7,3.4,1.7,4.4,2.8c0.9,1.1,1.4,2.5,1.4,4.1c0,1.5-0.4,2.8-1.3,4
			s-2.2,2-3.9,2.6l-28.1,9.9c-0.6,0.2-1.1,0.3-1.6,0.4c-0.5,0.1-0.9,0.1-1.2,0.1c-1.2,0-2.2-0.4-3-1.2s-1.2-1.9-1.2-3.2
			c0-1.1,0.4-2.1,1.1-2.9c0.7-0.8,1.8-1.4,3.3-1.8l3.6-1.1V379.9z M468,382.4v9.3l14.5-4.5L468,382.4z"/>
		<path class="st1" d="M459.3,405.6l26.6,4.8c2.2,0.4,3.8,1.1,4.7,2c0.9,0.9,1.4,2.3,1.4,4c0,1.7-0.4,3-1.3,4c-0.9,1-2.2,1.8-4,2.2
			l-23.3,5.9l23.4,5.6c1.7,0.4,3,1.1,3.9,2.1c0.9,1,1.3,2.3,1.3,3.9c0,1.8-0.5,3.3-1.5,4.2c-1,1-2.6,1.7-5,2l-26.9,4.3
			c-0.4,0.1-0.8,0.1-1.1,0.2c-0.4,0-0.7,0.1-1,0.1c-1.4,0-2.6-0.4-3.4-1.2c-0.8-0.8-1.3-1.9-1.3-3.3c0-1.3,0.4-2.2,1.3-3
			c0.9-0.7,2.2-1.2,3.9-1.4l23.3-2.8c-9.3-2.2-15.9-3.8-19.8-4.8s-6.3-1.9-7.2-2.4c-0.6-0.4-1-0.8-1.2-1.4c-0.2-0.6-0.4-1.4-0.4-2.3
			c0-1.5,0.3-2.6,1-3.4c0.7-0.8,1.8-1.4,3.5-1.8l24.1-5.8l-22.8-3.1c-2-0.3-3.5-0.8-4.4-1.6c-0.9-0.8-1.4-1.8-1.4-3.1
			c0-1.3,0.4-2.4,1.3-3.2c0.8-0.8,2-1.2,3.4-1.2c0.3,0,0.7,0,1.2,0.1S458.7,405.5,459.3,405.6z"/>
		<path class="st1" d="M491.5,471.5c0,2.1-0.3,3.7-1,4.8c-0.7,1.1-1.7,1.6-3.2,1.6c-1.4,0-2.4-0.5-3.1-1.6c-0.7-1-1-2.6-1-4.8v-7.2
			h-7v6.3c0,2.1-0.3,3.7-1,4.8c-0.7,1-1.7,1.6-3.1,1.6s-2.4-0.5-3.1-1.6c-0.7-1-1-2.6-1-4.8v-6.3h-7.3v7.5c0,2.1-0.3,3.7-1,4.8
			c-0.7,1-1.7,1.6-3.1,1.6c-1.4,0-2.4-0.5-3.1-1.6c-0.7-1-1-2.6-1-4.8v-10.4c0-2.3,0.4-3.9,1.2-4.8s2.3-1.3,4.4-1.3h27.2
			c2.4,0,4,0.5,4.9,1.4c0.9,0.9,1.3,2.5,1.3,4.8V471.5z"/>
		<path class="st1" d="M468.2,509.8h-10c-2.1,0-3.7-0.4-4.8-1.1c-1-0.7-1.6-1.9-1.6-3.4s0.5-2.6,1.6-3.4c1-0.7,2.6-1.1,4.8-1.1h27.4
			c2.1,0,3.7,0.4,4.8,1.1c1,0.7,1.6,1.9,1.6,3.4s-0.5,2.6-1.6,3.4c-1,0.7-2.6,1.1-4.8,1.1h-9.2v16.4h9.2c2.1,0,3.7,0.4,4.8,1.1
			c1,0.7,1.6,1.9,1.6,3.4c0,1.5-0.5,2.6-1.6,3.4c-1,0.7-2.6,1.1-4.8,1.1h-27.4c-2.1,0-3.7-0.4-4.8-1.1c-1-0.7-1.6-1.9-1.6-3.4
			c0-1.5,0.5-2.6,1.6-3.4s2.6-1.1,4.8-1.1h10V509.8z"/>
		<path class="st1" d="M458.3,551.1c-2.1,0-3.7-0.4-4.8-1.1c-1-0.7-1.6-1.9-1.6-3.4s0.5-2.6,1.6-3.4c1-0.7,2.6-1.1,4.8-1.1h27.4
			c2.1,0,3.7,0.4,4.8,1.1c1,0.7,1.6,1.9,1.6,3.4s-0.5,2.6-1.6,3.4c-1,0.7-2.6,1.1-4.8,1.1H458.3z"/>
		<path class="st1" d="M467.9,567.2h-9.6c-2.1,0-3.7-0.4-4.8-1.1c-1-0.7-1.6-1.9-1.6-3.4s0.5-2.6,1.6-3.4c1-0.7,2.6-1.1,4.8-1.1h27
			c2.4,0,4,0.5,4.9,1.4c0.9,0.9,1.3,2.5,1.3,4.8v6.9c0,4.6-1.1,8.3-3.3,10.9c-2.2,2.6-5.2,4-8.9,4c-2.8,0-5.1-0.8-7-2.5
			c-1.9-1.7-3.1-3.9-3.6-6.9l-7.8,7c-1,0.9-1.9,1.6-2.8,2c-0.9,0.4-1.6,0.7-2.3,0.7c-1.2,0-2.2-0.4-3-1.2c-0.8-0.8-1.2-1.8-1.2-3
			c0-0.8,0.2-1.5,0.7-2.3s1.3-1.6,2.5-2.5L467.9,567.2z M473.9,567.2v4.1c0,1.8,0.4,3.2,1.3,4.2c0.8,1,2,1.5,3.6,1.5
			c1.5,0,2.6-0.5,3.4-1.4c0.8-1,1.2-2.3,1.2-4.1v-4.2H473.9z"/>
		<path class="st1" d="M491.5,607.2c0,2.1-0.3,3.7-1,4.8c-0.7,1.1-1.7,1.6-3.2,1.6c-1.4,0-2.4-0.5-3.1-1.6c-0.7-1-1-2.6-1-4.8V600
			h-7v6.3c0,2.1-0.3,3.7-1,4.8c-0.7,1-1.7,1.6-3.1,1.6s-2.4-0.5-3.1-1.6c-0.7-1-1-2.6-1-4.8V600h-7.3v7.5c0,2.1-0.3,3.7-1,4.8
			c-0.7,1-1.7,1.6-3.1,1.6c-1.4,0-2.4-0.5-3.1-1.6c-0.7-1-1-2.6-1-4.8v-10.4c0-2.3,0.4-3.9,1.2-4.8s2.3-1.3,4.4-1.3h27.2
			c2.4,0,4,0.5,4.9,1.4c0.9,0.9,1.3,2.5,1.3,4.8V607.2z"/>
	</g>
</g>
</svg>
