<?xml version="1.0" encoding="UTF-8"?><svg id="Layer_1" xmlns="http://www.w3.org/2000/svg" viewBox="0 0 151.8 181.61"><defs><style>.cls-1{fill:#fff;}</style></defs><path class="cls-1" d="M151.68,29.52c0-16.28-13.33-29.52-29.71-29.52H61.33c-16.38,0-29.71,13.24-29.71,29.52v6.63h-9.06l19.43,23.87,19.43-23.87h-8.72v-6.63c0-4.65,3.87-8.44,8.63-8.44h60.64c4.76,0,8.63,3.79,8.63,8.44v15.35h.08v55.78l-45.93-56.09h0s0,0,0,0h-21.12v56.1L17.71,44.55H.02v92.19h-.02v15.35c0,16.28,13.33,29.52,29.71,29.52h61.49c16.38,0,29.71-13.24,29.71-29.52v-6.62h9.26l-19.43-23.87-19.43,23.87h8.53v6.62c0,4.65-3.87,8.44-8.63,8.44H29.71c-4.76,0-8.63-3.79-8.63-8.44v-15.15h.06v-56.1l45.93,55.93v.16h21.12v-56.1l46.06,56.1h17.55V44.55h-.12v-15.03Z"/></svg>