<svg viewBox="0 0 31 32" fill="none" xmlns="http://www.w3.org/2000/svg">
  <path d="M4.21282 32C2.78205 32 1.72222 31.7067 1.03333 31.12C0.344444 30.5333 0 29.6533 0 28.48C0 26.9333 0.649145 25.9467 1.94744 25.52C3.24573 25.0933 4.78248 24.88 6.55769 24.88H7.39231V22.64C7.39231 21.7333 7.37906 20.9933 7.35256 20.42C7.32607 19.8467 7.24658 19.3733 7.1141 19C6.98162 18.6267 6.82927 18.3667 6.65705 18.22C6.48483 18.0733 6.25299 18 5.96154 18C5.72308 18 5.50449 18.04 5.30577 18.12C5.10705 18.2 4.94145 18.3067 4.80897 18.44C4.70299 18.5733 4.63675 18.7133 4.61026 18.86C4.58376 19.0067 4.59701 19.16 4.65 19.32C4.80897 19.6133 4.99444 19.9 5.20641 20.18C5.41838 20.46 5.52436 20.7867 5.52436 21.16C5.52436 21.8267 5.29252 22.3933 4.82885 22.86C4.36517 23.3267 3.80214 23.56 3.13974 23.56C2.47735 23.56 1.91432 23.3267 1.45064 22.86C0.986966 22.3933 0.755128 21.8267 0.755128 21.16C0.755128 20.44 0.914103 19.8533 1.23205 19.4C1.55 18.9467 1.98056 18.5867 2.52372 18.32C3.06688 18.0533 3.69615 17.8667 4.41154 17.76C5.12692 17.6533 5.8953 17.6 6.71667 17.6C8.9688 17.6 10.5321 18.0067 11.4064 18.82C12.2808 19.6333 12.7179 21.0667 12.7179 23.12V29C12.7179 29.5067 12.7776 29.88 12.8968 30.12C13.016 30.36 13.2214 30.48 13.5128 30.48C13.8308 30.48 14.0891 30.24 14.2878 29.76C14.4865 29.28 14.6124 28.5333 14.6654 27.52H15.1026C15.0231 29.1733 14.7118 30.3333 14.1686 31C13.6254 31.6667 12.7179 32 11.4462 32C10.3068 32 9.41261 31.82 8.76346 31.46C8.11432 31.1 7.69701 30.56 7.51154 29.84C7.24658 30.6133 6.85577 31.1667 6.3391 31.5C5.82244 31.8333 5.11368 32 4.21282 32ZM19.0372 32C18.5073 32 18.0767 31.78 17.7455 31.34C17.4143 30.9 17.3547 30.4267 17.5667 29.92L21.6205 19.16C21.806 18.7067 22.0974 18.3333 22.4949 18.04C22.8923 17.7467 23.3427 17.6 23.8462 17.6C24.3496 17.6 24.8 17.7467 25.1974 18.04C25.5949 18.3333 25.8863 18.7067 26.0718 19.16L30.1256 29.92C30.3376 30.4267 30.278 30.9 29.9468 31.34C29.6156 31.78 29.185 32 28.6551 32C28.3372 32 28.0457 31.9067 27.7808 31.72C27.5158 31.5333 27.3171 31.28 27.1846 30.96L26.3897 28.64H21.3026L20.5077 30.96C20.4017 31.2533 20.2162 31.5 19.9513 31.7C19.6863 31.9 19.3816 32 19.0372 32ZM6.16026 30.84C6.5047 30.84 6.79615 30.5667 7.03462 30.02C7.27308 29.4733 7.39231 28.8133 7.39231 28.04V25.36C6.70342 25.36 6.2 25.5667 5.88205 25.98C5.5641 26.3933 5.40513 27.0667 5.40513 28V28.44C5.40513 29.4 5.45812 30.04 5.5641 30.36C5.67009 30.68 5.8688 30.84 6.16026 30.84ZM22.3359 25.84H25.3962L23.8462 21.28L22.3359 25.84ZM20.8654 14.44C19.5936 14.44 18.5801 13.9933 17.825 13.1C17.0699 12.2067 16.6923 11 16.6923 9.48C16.6923 6.70667 17.5667 4.43333 19.3154 2.66C21.0641 0.886667 23.303 0 26.0321 0C27.1449 0 28.0457 0.126667 28.7346 0.38C29.4235 0.633333 29.768 0.96 29.768 1.36C29.768 1.52 29.7415 1.68 29.6885 1.84C29.6355 2 29.5427 2.14667 29.4103 2.28C29.2778 2.46667 29.1122 2.6 28.9135 2.68C28.7147 2.76 28.5094 2.77333 28.2974 2.72C27.9265 2.61333 27.5026 2.52 27.0256 2.44C26.5487 2.36 26.1115 2.32 25.7141 2.32C23.8329 2.32 22.3227 2.96 21.1833 4.24C20.044 5.52 19.4744 7.21333 19.4744 9.32C19.4744 9.90667 19.5803 10.52 19.7923 11.16C20.0043 11.8 20.4812 12.12 21.2231 12.12C21.5145 12.12 21.7994 12.0533 22.0776 11.92C22.3558 11.7867 22.6009 11.6 22.8128 11.36C23.2632 10.88 23.6806 10.08 24.0647 8.96C24.4489 7.84 24.8 6.48 25.118 4.88C25.1709 4.53333 25.31 4.28667 25.5353 4.14C25.7605 3.99333 26.0718 3.92 26.4692 3.92C26.9462 3.92 27.3105 4.04667 27.5622 4.3C27.8139 4.55333 27.8868 4.86667 27.7808 5.24C27.4628 6.38667 27.231 7.38667 27.0853 8.24C26.9395 9.09333 26.8667 9.86667 26.8667 10.56C26.8667 11.0933 26.9395 11.48 27.0853 11.72C27.231 11.96 27.4496 12.08 27.741 12.08C28.0325 12.08 28.3173 11.9733 28.5955 11.76C28.8737 11.5467 29.2645 11.1467 29.768 10.56C29.8209 10.48 30.0197 10.3867 30.3641 10.28C30.5761 10.28 30.735 10.36 30.841 10.52C30.947 10.68 31 10.9067 31 11.2C31 11.9467 30.5761 12.6667 29.7282 13.36C28.8803 14.0533 27.9927 14.4 27.0654 14.4C26.3765 14.4 25.787 14.2133 25.2968 13.84C24.8066 13.4667 24.4688 12.9333 24.2833 12.24C23.8859 12.9333 23.3957 13.4733 22.8128 13.86C22.2299 14.2467 21.5808 14.44 20.8654 14.44ZM1.58974 14.4V5.6C1.58974 4.05333 2.13291 2.73333 3.21923 1.64C4.30556 0.546667 5.61709 0 7.15385 0C8.6906 0 10.0021 0.546667 11.0885 1.64C12.1748 2.73333 12.7179 4.05333 12.7179 5.6V14.4H9.53846V11.2H4.76923V14.4H1.58974ZM4.76923 8H9.53846V5.6C9.53846 4.93333 9.30662 4.36667 8.84295 3.9C8.37927 3.43333 7.81624 3.2 7.15385 3.2C6.49145 3.2 5.92842 3.43333 5.46474 3.9C5.00107 4.36667 4.76923 4.93333 4.76923 5.6V8Z" fill="white"/>
</svg>