<svg aria-hidden="true" width="28" height="32" viewBox="0 0 28 32" fill="none" xmlns="http://www.w3.org/2000/svg">
  <path d="M2.97747 32C2.14543 32 1.44118 31.707 0.864706 31.1211C0.288235 30.5352 0 29.8194 0 28.9737V6.56732C0 5.72164 0.288235 5.00585 0.864706 4.41993C1.44118 3.83401 2.14543 3.54105 2.97747 3.54105H5.25782V0H7.79182V3.54105H20.2716V0H22.7422V3.54105H25.0225C25.8546 3.54105 26.5588 3.83401 27.1353 4.41993C27.7118 5.00585 28 5.72164 28 6.56732V28.9737C28 29.8194 27.7118 30.5352 27.1353 31.1211C26.5588 31.707 25.8546 32 25.0225 32H2.97747ZM2.97747 29.4889H25.0225C25.1494 29.4889 25.2655 29.4352 25.3709 29.3278C25.4766 29.2206 25.5294 29.1026 25.5294 28.9737V13.2635H2.47059V28.9737C2.47059 29.1026 2.52343 29.2206 2.62912 29.3278C2.73453 29.4352 2.85065 29.4889 2.97747 29.4889ZM2.47059 10.7525H25.5294V6.56732C25.5294 6.43842 25.4766 6.3204 25.3709 6.21326C25.2655 6.10584 25.1494 6.05213 25.0225 6.05213H2.97747C2.85065 6.05213 2.73453 6.10584 2.62912 6.21326C2.52343 6.3204 2.47059 6.43842 2.47059 6.56732V10.7525ZM6.17647 19.0261V16.515H21.8235V19.0261H6.17647ZM6.17647 25.7223V23.2112H16.8824V25.7223H6.17647Z" fill="white"/>
</svg>
