<svg aria-hidden="true" viewBox="0 0 26 32" fill="none" xmlns="http://www.w3.org/2000/svg">
  <path d="M13 32C9.40792 32 6.34324 31.5222 3.80594 30.5665C1.26865 29.6106 0 28.2894 0 26.6027C0 25.8393 0.286765 25.1497 0.860294 24.5339C1.43382 23.918 2.21867 23.3927 3.21482 22.9578L5.08224 24.6453C4.32339 24.8805 3.66906 25.1735 3.11924 25.5244C2.56916 25.8755 2.29412 26.2349 2.29412 26.6027C2.29412 27.3301 3.31181 28.026 5.34721 28.6905C7.38234 29.3549 9.93328 29.6871 13 29.6871C16.0667 29.6871 18.6177 29.3549 20.6528 28.6905C22.6882 28.026 23.7059 27.3301 23.7059 26.6027C23.7059 26.2349 23.4308 25.8755 22.8808 25.5244C22.3309 25.1735 21.6766 24.8805 20.9178 24.6453L22.7852 22.9578C23.7813 23.3927 24.5662 23.918 25.1397 24.5339C25.7132 25.1497 26 25.8393 26 26.6027C26 28.2894 24.7314 29.6106 22.1941 30.5665C19.6568 31.5222 16.5921 32 13 32ZM13 26.2465C12.5317 26.2465 12.0794 26.1626 11.643 25.9947C11.2066 25.8266 10.8061 25.5844 10.4413 25.268L0.806 16.6853C0.553137 16.4617 0.355588 16.1959 0.213353 15.888C0.0711177 15.5801 0 15.2625 0 14.9353V11.8806C0 11.5465 0.0583726 11.2222 0.175118 10.9079C0.291863 10.5935 0.476667 10.3247 0.72953 10.1013L10.3943 1.02594C10.7491 0.684088 11.1497 0.42757 11.596 0.256387C12.0423 0.0854615 12.51 0 12.9989 0C13.4878 0 13.9558 0.0854615 14.4029 0.256387C14.85 0.42757 15.2509 0.684088 15.6057 1.02594L25.2705 10.1013C25.5233 10.3247 25.7081 10.5935 25.8249 10.9079C25.9416 11.2222 26 11.5465 26 11.8806V14.9353C26 15.2625 25.9289 15.5801 25.7866 15.888C25.6444 16.1959 25.4469 16.4617 25.194 16.6853L15.5587 25.268C15.1939 25.5844 14.7934 25.8266 14.357 25.9947C13.9206 26.1626 13.4683 26.2465 13 26.2465ZM12.891 19.7697C13.2515 19.7697 13.5926 19.7093 13.9146 19.5885C14.2363 19.4679 14.5371 19.2791 14.8169 19.0221L23.291 11.4268L14.0706 2.72851C13.9018 2.58997 13.7283 2.48613 13.5498 2.41699C13.3714 2.34785 13.1802 2.31328 12.9763 2.31328C12.7724 2.31328 12.5812 2.34785 12.4028 2.41699C12.2243 2.48613 12.0665 2.58997 11.9294 2.72851L2.58547 11.5514L10.9624 19.0491C11.2444 19.3079 11.5462 19.4927 11.8679 19.6035C12.1898 19.7143 12.5309 19.7697 12.891 19.7697ZM8.41368 13.3754C8.90844 13.3754 9.32597 13.2032 9.66626 12.8588C10.0063 12.5143 10.1763 12.0927 10.1763 11.5938C10.1763 11.0951 10.0055 10.6742 9.66397 10.3311C9.3224 9.98798 8.90436 9.81641 8.40985 9.81641C7.91509 9.81641 7.49756 9.98862 7.15727 10.333C6.81723 10.6775 6.64721 11.0991 6.64721 11.598C6.64721 12.0969 6.81799 12.5178 7.15956 12.8607C7.50113 13.2038 7.91917 13.3754 8.41368 13.3754ZM10.5881 15.5464C11.6353 16.017 12.7275 16.1534 13.8649 15.9555C15.002 15.7578 16.0049 15.2724 16.8736 14.4993C17.6814 13.7935 18.2167 12.9147 18.4795 11.8629C18.7421 10.8111 18.6547 9.7988 18.2176 8.82594L10.5881 15.5464ZM13.0019 8.74883C13.4967 8.74883 13.9142 8.57662 14.2545 8.23219C14.5945 7.88777 14.7646 7.46611 14.7646 6.96722C14.7646 6.46857 14.5938 6.04769 14.2522 5.70455C13.9106 5.36141 13.4926 5.18985 12.9981 5.18985C12.5033 5.18985 12.0858 5.36206 11.7455 5.70648C11.4055 6.0509 11.2354 6.47256 11.2354 6.97146C11.2354 7.47036 11.4062 7.89124 11.7478 8.23412C12.0894 8.57726 12.5074 8.74883 13.0019 8.74883Z" fill="white"/>
</svg>
