<svg width="22" height="22" viewBox="0 0 22 22" fill="none" xmlns="http://www.w3.org/2000/svg">
  <path d="M19.8157 22H7.61884C7.27534 22.0005 6.93648 21.9207 6.62936 21.7669C6.32224 21.6131 6.05538 21.3896 5.85014 21.1142C5.64489 20.8389 5.50695 20.5193 5.44736 20.1811C5.38776 19.843 5.40815 19.4955 5.50691 19.1666L6.19483 16.8559C6.50774 15.7958 7.15649 14.8659 8.04352 14.2061C8.93054 13.5463 10.0079 13.1923 11.1135 13.1972H16.3005C17.4061 13.1923 18.4834 13.5463 19.3704 14.2061C20.2575 14.8659 20.9062 15.7958 21.2191 16.8559L21.907 19.1666C22.0053 19.4938 22.026 19.8395 21.9675 20.1761C21.909 20.5127 21.7729 20.8311 21.57 21.106C21.3671 21.3809 21.1029 21.6048 20.7984 21.76C20.4939 21.9152 20.1575 21.9973 19.8157 22ZM11.1204 14.6621C10.3303 14.6581 9.56034 14.9108 8.92635 15.3821C8.29237 15.8534 7.82868 16.5179 7.60508 17.2754L6.91716 19.5861C6.88551 19.6943 6.87914 19.8083 6.89855 19.9193C6.91796 20.0304 6.96263 20.1355 7.0291 20.2265C7.09558 20.3175 7.18208 20.3921 7.28195 20.4444C7.38181 20.4968 7.49237 20.5254 7.60508 20.5283H19.8157C19.9285 20.5254 20.039 20.4968 20.1389 20.4444C20.2387 20.3921 20.3253 20.3175 20.3917 20.2265C20.4582 20.1355 20.5029 20.0304 20.5223 19.9193C20.5417 19.8083 20.5353 19.6943 20.5037 19.5861L19.8157 17.2754C19.5922 16.5179 19.1285 15.8534 18.4945 15.3821C17.8605 14.9108 17.0905 14.6581 16.3005 14.6621H11.1204ZM3.67015 22H2.20487C1.86137 22.0005 1.52251 21.9207 1.21539 21.7669C0.908266 21.6131 0.641412 21.3896 0.436168 21.1142C0.230923 20.8389 0.0929856 20.5193 0.0333873 20.1811C-0.0262111 19.843 -0.00581611 19.4955 0.092941 19.1666L0.780866 16.8559C1.09409 15.7947 1.74388 14.8639 2.6323 14.204C3.52071 13.5441 4.59962 13.1908 5.70641 13.1972C5.80859 13.1873 5.91171 13.1989 6.00915 13.2312C6.10659 13.2635 6.19619 13.3158 6.2722 13.3848C6.34822 13.4538 6.40896 13.5379 6.45052 13.6317C6.49209 13.7255 6.51356 13.827 6.51356 13.9297C6.51356 14.0323 6.49209 14.1338 6.45052 14.2276C6.40896 14.3215 6.34822 14.4056 6.2722 14.4745C6.19619 14.5435 6.10659 14.5958 6.00915 14.6281C5.91171 14.6604 5.80859 14.672 5.70641 14.6621C4.91635 14.6581 4.14637 14.9108 3.51238 15.3821C2.8784 15.8534 2.41471 16.5179 2.19111 17.2754L1.50319 19.5861C1.47154 19.6943 1.46517 19.8083 1.48458 19.9193C1.50399 20.0304 1.54866 20.1355 1.61513 20.2265C1.68161 20.3175 1.76811 20.3921 1.86798 20.4444C1.96784 20.4968 2.0784 20.5254 2.19111 20.5283H3.67015C3.77233 20.5184 3.87545 20.5299 3.97289 20.5622C4.07033 20.5945 4.15993 20.6469 4.23595 20.7158C4.31196 20.7848 4.3727 20.8689 4.41427 20.9628C4.45583 21.0566 4.47731 21.1581 4.47731 21.2607C4.47731 21.3633 4.45583 21.4648 4.41427 21.5587C4.3727 21.6525 4.31196 21.7366 4.23595 21.8056C4.15993 21.8745 4.07033 21.9269 3.97289 21.9592C3.87545 21.9915 3.77233 22.003 3.67015 21.9931V22ZM13.7139 11.7324C12.5533 11.7324 11.4188 11.3884 10.4538 10.7438C9.48878 10.0992 8.73666 9.18302 8.29253 8.11111C7.84839 7.0392 7.73219 5.8597 7.95861 4.72177C8.18503 3.58384 8.7439 2.53858 9.56455 1.71817C10.3852 0.897771 11.4308 0.339069 12.5691 0.11272C13.7073 -0.113629 14.8872 0.00254173 15.9594 0.446541C17.0317 0.89054 17.9481 1.64243 18.5929 2.60712C19.2377 3.57181 19.5819 4.70598 19.5819 5.86621C19.58 7.42147 18.9612 8.9125 17.8611 10.0122C16.7611 11.112 15.2696 11.7306 13.7139 11.7324ZM13.7139 1.46484C12.8431 1.46484 11.9919 1.72297 11.2678 2.2066C10.5438 2.69023 9.9795 3.37763 9.64627 4.18188C9.31304 4.98612 9.22585 5.87109 9.39573 6.72487C9.56561 7.57866 9.98493 8.36291 10.6007 8.97845C11.2164 9.59399 12.0009 10.0132 12.8549 10.183C13.709 10.3528 14.5942 10.2657 15.3987 9.93255C16.2032 9.59942 16.8908 9.03528 17.3746 8.31148C17.8584 7.58768 18.1166 6.73672 18.1166 5.86621C18.1166 4.69826 17.6529 3.57804 16.8275 2.75153C16.002 1.92502 14.8822 1.45978 13.7139 1.45796V1.46484ZM7.33679 11.643H7.19921C5.85921 11.3843 4.65113 10.6672 3.78242 9.61492C2.9137 8.56266 2.43855 7.24088 2.43855 5.87653C2.43855 4.51217 2.9137 3.19039 3.78242 2.13813C4.65113 1.08587 5.85921 0.368798 7.19921 0.110037C7.38667 0.0831639 7.57729 0.12956 7.73142 0.239578C7.88555 0.349596 7.99133 0.51477 8.02676 0.700754C8.0622 0.886738 8.02457 1.07922 7.92169 1.23818C7.81881 1.39714 7.6586 1.51033 7.47437 1.55424C6.46536 1.74371 5.5543 2.27974 4.89876 3.06964C4.24322 3.85953 3.88443 4.85361 3.88443 5.87996C3.88443 6.90632 4.24322 7.9004 4.89876 8.69029C5.5543 9.48018 6.46536 10.0162 7.47437 10.2057C7.6376 10.254 7.77904 10.3573 7.87463 10.4981C7.97021 10.6389 8.01403 10.8085 7.99862 10.9779C7.98321 11.1474 7.90952 11.3063 7.79011 11.4276C7.67069 11.5488 7.51293 11.625 7.34367 11.643H7.33679Z" fill="currentColor"/>
</svg>
