<svg width="14" height="22" viewBox="0 0 14 22" fill="none" xmlns="http://www.w3.org/2000/svg">
  <path d="M6.21664 20.0588H7.78336V17.5152L12.0909 13.1353V7.51591C12.0909 7.41627 12.0501 7.32503 11.9684 7.24221C11.887 7.15917 11.7972 7.11765 11.6992 7.11765H2.30077C2.20277 7.11765 2.11305 7.15917 2.03159 7.24221C1.94992 7.32503 1.90909 7.41627 1.90909 7.51591V13.1353L6.21664 17.5152V20.0588ZM4.30786 22V18.3415L0 13.9616V7.51591C0 6.87058 0.224742 6.31928 0.674227 5.86203C1.12392 5.40499 1.66611 5.17647 2.30077 5.17647H3.72018L2.76595 6.14706V0H4.67473V5.17647H9.32527V0H11.234V6.14706L10.2798 5.17647H11.6992C12.3339 5.17647 12.8761 5.40499 13.3258 5.86203C13.7753 6.31928 14 6.87058 14 7.51591V13.9616L9.69214 18.3415V22H4.30786Z" fill="currentColor"/>
</svg>
