<svg width="13" height="13" viewBox="0 0 13 13" fill="none" xmlns="http://www.w3.org/2000/svg">
  <path d="M1.3824 13C0.996093 13 0.669118 12.8662 0.401471 12.5985C0.133824 12.3309 0 12.0039 0 11.6176V8.79412H1.14706V11.6176C1.14706 11.6765 1.17159 11.7304 1.22066 11.7793C1.2696 11.8284 1.32351 11.8529 1.3824 11.8529H4.20588V13H1.3824ZM8.79412 13V11.8529H11.6176C11.6765 11.8529 11.7304 11.8284 11.7793 11.7793C11.8284 11.7304 11.8529 11.6765 11.8529 11.6176V8.79412H13V11.6176C13 12.0039 12.8662 12.3309 12.5985 12.5985C12.3309 12.8662 12.0039 13 11.6176 13H8.79412ZM0 4.20588V1.3824C0 0.996093 0.133824 0.669118 0.401471 0.401471C0.669118 0.133824 0.996093 0 1.3824 0H4.20588V1.14706H1.3824C1.32351 1.14706 1.2696 1.17159 1.22066 1.22066C1.17159 1.2696 1.14706 1.32351 1.14706 1.3824V4.20588H0ZM11.8529 4.20588V1.3824C11.8529 1.32351 11.8284 1.2696 11.7793 1.22066C11.7304 1.17159 11.6765 1.14706 11.6176 1.14706H8.79412V0H11.6176C12.0039 0 12.3309 0.133824 12.5985 0.401471C12.8662 0.669118 13 0.996093 13 1.3824V4.20588H11.8529Z" fill="#181A1F"/>
</svg>
