<svg width="22" height="22" viewBox="0 0 22 22" fill="none" xmlns="http://www.w3.org/2000/svg">
  <path d="M2.33944 22C1.6857 22 1.13235 21.7735 0.679412 21.3206C0.226471 20.8676 0 20.3143 0 19.6606V14.8824H1.94118V19.6606C1.94118 19.7602 1.9827 19.8514 2.06574 19.9343C2.14856 20.0173 2.23979 20.0588 2.33944 20.0588H7.11765V22H2.33944ZM14.8824 22V20.0588H19.6606C19.7602 20.0588 19.8514 20.0173 19.9343 19.9343C20.0173 19.8514 20.0588 19.7602 20.0588 19.6606V14.8824H22V19.6606C22 20.3143 21.7735 20.8676 21.3206 21.3206C20.8676 21.7735 20.3143 22 19.6606 22H14.8824ZM0 7.11765V2.33944C0 1.6857 0.226471 1.13235 0.679412 0.679412C1.13235 0.226471 1.6857 0 2.33944 0H7.11765V1.94118H2.33944C2.23979 1.94118 2.14856 1.9827 2.06574 2.06573C1.9827 2.14856 1.94118 2.23979 1.94118 2.33944V7.11765H0ZM20.0588 7.11765V2.33944C20.0588 2.23979 20.0173 2.14856 19.9343 2.06573C19.8514 1.9827 19.7602 1.94118 19.6606 1.94118H14.8824V0H19.6606C20.3143 0 20.8676 0.226471 21.3206 0.679412C21.7735 1.13235 22 1.6857 22 2.33944V7.11765H20.0588Z" fill="#EE3324"/>
</svg>
