<svg width="18" height="22" viewBox="0 0 18 22" fill="none" xmlns="http://www.w3.org/2000/svg">
  <path d="M6.02709 1.62963V0H11.9729V1.62963H6.02709ZM8.20588 13.643H9.79412V7.5422H8.20588V13.643ZM9 22C7.76206 22 6.59735 21.7576 5.50588 21.2729C4.41441 20.7882 3.46015 20.1266 2.64309 19.288C1.82585 18.4497 1.18103 17.4705 0.708618 16.3506C0.236206 15.2307 0 14.0356 0 12.7654C0 11.4952 0.236206 10.3002 0.708618 9.18025C1.18103 8.06033 1.82585 7.08119 2.64309 6.24284C3.46015 5.4043 4.41441 4.74268 5.50588 4.25795C6.59735 3.77323 7.76206 3.53086 9 3.53086C10.0602 3.53086 11.0814 3.71547 12.0634 4.08467C13.0455 4.45369 13.9574 4.98223 14.7992 5.6703L16.1185 4.31662L17.2342 5.46143L15.9149 6.81511C16.5855 7.67881 17.1006 8.61449 17.4603 9.62215C17.8201 10.6298 18 11.6776 18 12.7654C18 14.0356 17.7638 15.2307 17.2914 16.3506C16.819 17.4705 16.1741 18.4497 15.3569 19.288C14.5399 20.1266 13.5856 20.7882 12.4941 21.2729C11.4026 21.7576 10.2379 22 9 22ZM9 20.3704C11.0471 20.3704 12.7941 19.628 14.2412 18.1432C15.6882 16.6584 16.4118 14.8658 16.4118 12.7654C16.4118 10.665 15.6882 8.87243 14.2412 7.38765C12.7941 5.90288 11.0471 5.16049 9 5.16049C6.95294 5.16049 5.20588 5.90288 3.75882 7.38765C2.31176 8.87243 1.58824 10.665 1.58824 12.7654C1.58824 14.8658 2.31176 16.6584 3.75882 18.1432C5.20588 19.628 6.95294 20.3704 9 20.3704Z" fill="#EE3324"/>
</svg>
