<svg aria-hidden="true" width="20" height="20" viewBox="0 0 20 20" fill="none" xmlns="http://www.w3.org/2000/svg">
  <g clip-path="url(#clip0_13_562)">
    <path d="M15.3033 13.7794C15.0735 13.7794 14.865 13.6863 14.7142 13.5355C14.5633 13.3846 14.4702 13.1761 14.4702 12.9463L14.4702 6.70843L5.28609 15.8925C4.96023 16.2184 4.43344 16.2184 4.10758 15.8925C3.78172 15.5666 3.78172 15.0399 4.10758 14.714L13.2917 5.52992L7.05377 5.52989C6.59297 5.52989 6.2206 5.15751 6.2206 4.69671C6.2206 4.23592 6.59306 3.86345 7.05386 3.86345L15.3034 3.86345C15.7642 3.86345 16.1366 4.2358 16.1366 4.6966L16.1366 12.9462C16.1366 13.407 15.7641 13.7794 15.3033 13.7794Z"/>
  </g>
  <defs>
    <clipPath id="clip0_13_562">
      <rect width="20" height="20"/>
    </clipPath>
  </defs>
</svg>
